<svg width="30" height="30" xmlns="http://www.w3.org/2000/svg"><style>path{fill:#000}@media (prefers-color-scheme:dark){path{fill:#fff}}</style><path d="M22.419 13.371a3.656 3.656 0 0 0-1.046 2.929l-.018-.018a4.344 4.344 0 0 1-4.694 4.694l.018.018A3.678 3.678 0 1 0 20 24.312l.019.018a4.344 4.344 0 0 1 4.694-4.694l-.019-.018a3.672 3.672 0 1 0-2.272-6.247h-.003Z"/><path d="m15.042 18.636-.019-.018A3.632 3.632 0 0 0 19 14.644l.019.018a4.345 4.345 0 0 1 4.694-4.694l-.019-.018a3.678 3.678 0 1 0-3.318-3.318l-.018-.019a4.344 4.344 0 0 1-4.694 4.694l.018.019a3.632 3.632 0 0 0-3.977 3.974l-.018-.018a4.346 4.346 0 0 1-4.694 4.694l.018.018a3.677 3.677 0 1 0 3.318 3.318l.019.018a4.344 4.344 0 0 1 4.694-4.694Z"/><path d="M8.34 16.629A3.652 3.652 0 0 0 9.385 13.7l.019.018A4.344 4.344 0 0 1 14.1 9.024l-.019-.018a3.677 3.677 0 1 0-3.318-3.318l-.018-.018a4.343 4.343 0 0 1-4.694 4.694l.018.018a3.671 3.671 0 1 0 2.273 6.247H8.34Z"/></svg>